<?xml version="1.0" encoding="utf-8"?>
<svg xmlns="http://www.w3.org/2000/svg" xmlns:xlink="http://www.w3.org/1999/xlink" width="400" height="400" viewBox="0 0 1600 1600">
<defs>
  <clipPath id="clip620">
    <rect x="0" y="0" width="1600" height="1600"/>
  </clipPath>
</defs>
<path clip-path="url(#clip620)" d="
M0 1600 L1600 1600 L1600 0 L0 0  Z
  " fill="#ffffff" fill-rule="evenodd" fill-opacity="1"/>
<defs>
  <clipPath id="clip621">
    <rect x="320" y="160" width="1121" height="1121"/>
  </clipPath>
</defs>
<path clip-path="url(#clip620)" d="
M47.2441 1552.76 L1552.76 1552.76 L1552.76 47.2441 L47.2441 47.2441  Z
  " fill="#ffffff" fill-rule="evenodd" fill-opacity="1"/>
<defs>
  <clipPath id="clip622">
    <rect x="47" y="47" width="1507" height="1507"/>
  </clipPath>
</defs>
<polyline clip-path="url(#clip622)" style="stroke:#fac026; stroke-linecap:butt; stroke-linejoin:round; stroke-width:12; stroke-opacity:1; fill:none" points="
  89.8529,800 1510.15,1510.15 
  "/>
<polyline clip-path="url(#clip622)" style="stroke:#280b53; stroke-linecap:butt; stroke-linejoin:round; stroke-width:12; stroke-opacity:1; fill:none" points="
  1510.15,1510.15 800,89.8529 
  "/>
<polyline clip-path="url(#clip622)" style="stroke:#65156e; stroke-linecap:butt; stroke-linejoin:round; stroke-width:12; stroke-opacity:1; fill:none" points="
  800,89.8529 1510.15,800 
  "/>
<polyline clip-path="url(#clip622)" style="stroke:#fcfea4; stroke-linecap:butt; stroke-linejoin:round; stroke-width:12; stroke-opacity:1; fill:none" points="
  1510.15,800 89.8529,1510.15 
  "/>
<polyline clip-path="url(#clip622)" style="stroke:#d34841; stroke-linecap:butt; stroke-linejoin:round; stroke-width:12; stroke-opacity:1; fill:none" points="
  89.8529,1510.15 800,800 
  "/>
<polyline clip-path="url(#clip622)" style="stroke:#000003; stroke-linecap:butt; stroke-linejoin:round; stroke-width:12; stroke-opacity:1; fill:none" points="
  800,800 800,1510.15 
  "/>
<polyline clip-path="url(#clip622)" style="stroke:#f57c15; stroke-linecap:butt; stroke-linejoin:round; stroke-width:12; stroke-opacity:1; fill:none" points="
  800,1510.15 1510.15,89.8529 
  "/>
<polyline clip-path="url(#clip622)" style="stroke:#9e2a62; stroke-linecap:butt; stroke-linejoin:round; stroke-width:12; stroke-opacity:1; fill:none" points="
  1510.15,89.8529 89.8529,89.8529 
  "/>
<circle clip-path="url(#clip622)" cx="89.8529" cy="1510.15" r="18" fill="#000000" fill-rule="evenodd" fill-opacity="1" stroke="none"/>
<circle clip-path="url(#clip622)" cx="89.8529" cy="800" r="18" fill="#000000" fill-rule="evenodd" fill-opacity="1" stroke="none"/>
<circle clip-path="url(#clip622)" cx="89.8529" cy="89.8529" r="18" fill="#000000" fill-rule="evenodd" fill-opacity="1" stroke="none"/>
<circle clip-path="url(#clip622)" cx="800" cy="1510.15" r="18" fill="#000000" fill-rule="evenodd" fill-opacity="1" stroke="none"/>
<circle clip-path="url(#clip622)" cx="800" cy="800" r="18" fill="#000000" fill-rule="evenodd" fill-opacity="1" stroke="none"/>
<circle clip-path="url(#clip622)" cx="800" cy="89.8529" r="18" fill="#000000" fill-rule="evenodd" fill-opacity="1" stroke="none"/>
<circle clip-path="url(#clip622)" cx="1510.15" cy="1510.15" r="18" fill="#000000" fill-rule="evenodd" fill-opacity="1" stroke="none"/>
<circle clip-path="url(#clip622)" cx="1510.15" cy="800" r="18" fill="#000000" fill-rule="evenodd" fill-opacity="1" stroke="none"/>
<circle clip-path="url(#clip622)" cx="1510.15" cy="89.8529" r="18" fill="#000000" fill-rule="evenodd" fill-opacity="1" stroke="none"/>
</svg>
